<?xml version="1.0" standalone="no"?>
<!DOCTYPE svg PUBLIC "-//W3C//DTD SVG 20010904//EN"
 "http://www.w3.org/TR/2001/REC-SVG-20010904/DTD/svg10.dtd">
<svg version="1.0" xmlns="http://www.w3.org/2000/svg"
 width="540.000000pt" height="540.000000pt" viewBox="0 0 540.000000 540.000000"
 preserveAspectRatio="xMidYMid meet">
<metadata>
Created by potrace 1.14, written by Peter Selinger 2001-2017
</metadata>
<g transform="translate(0.000000,540.000000) scale(0.100000,-0.100000)"
fill="#000000" stroke="none">
<path d="M2668 5138 c12 -14 10 -15 -20 -9 -47 9 -63 8 -82 -8 -13 -11 -16
-11 -16 0 0 11 -2 11 -10 -1 -6 -10 -10 -11 -10 -2 0 6 -5 12 -11 12 -5 0 -7
-4 -4 -10 3 -5 1 -10 -4 -10 -6 0 -11 6 -11 13 0 7 -3 8 -8 2 -11 -16 -45 -19
-37 -3 3 7 0 5 -8 -5 -15 -18 -15 -18 -20 0 -4 16 -5 16 -6 1 0 -10 -6 -18
-12 -18 -5 0 -7 5 -3 11 4 8 1 8 -12 2 -23 -11 -45 -10 -63 1 -10 6 -12 5 -7
-3 5 -8 0 -10 -17 -7 -21 4 -24 1 -19 -17 5 -19 4 -19 -10 -6 -9 7 -14 19 -11
24 2 6 -2 2 -10 -7 -10 -13 -17 -14 -25 -6 -8 8 -13 7 -18 -5 -3 -9 -10 -17
-16 -17 -5 0 -6 5 -3 11 4 6 -3 5 -14 -3 -18 -11 -23 -11 -30 1 -5 8 -11 9
-15 3 -3 -6 3 -14 15 -17 11 -4 18 -9 16 -12 -3 -2 -15 1 -27 7 -14 7 -25 8
-29 3 -6 -9 -22 -13 -64 -14 -11 0 -17 -5 -14 -13 5 -13 -42 -14 -65 0 -11 6
-11 5 0 -8 11 -14 10 -16 -5 -14 -10 2 -21 -4 -25 -13 -6 -14 -7 -14 -7 1 -1
18 -31 14 -31 -4 0 -5 5 -6 12 -2 7 4 8 3 4 -5 -4 -6 -11 -9 -16 -6 -5 3 -11
1 -14 -4 -4 -6 -18 -6 -38 0 -17 5 -34 6 -37 4 -2 -3 1 -5 7 -5 7 0 12 -4 12
-8 0 -5 -10 -8 -22 -7 -13 1 -34 -5 -48 -14 -13 -9 -25 -15 -27 -14 -10 8 -33
-12 -29 -24 4 -9 2 -11 -7 -6 -18 11 -38 13 -31 2 3 -5 0 -9 -6 -9 -6 0 -8 -5
-4 -12 4 -6 3 -8 -4 -4 -6 3 -14 2 -17 -4 -5 -8 -12 -7 -23 2 -13 11 -14 11
-7 -1 6 -11 3 -13 -14 -8 -17 4 -20 2 -12 -7 13 -16 -18 -18 -37 -3 -9 7 -11
5 -6 -8 5 -13 4 -16 -4 -11 -8 4 -10 2 -6 -8 4 -11 0 -13 -18 -10 -13 2 -17 1
-10 -2 17 -8 -36 -37 -54 -30 -18 7 -35 -18 -28 -40 6 -18 6 -18 -8 0 -15 19
-15 19 -20 -1 -4 -15 -13 -19 -36 -18 -17 1 -29 -2 -26 -6 2 -4 -9 -16 -26
-25 -16 -10 -30 -23 -30 -30 0 -6 -9 -19 -20 -29 -11 -10 -20 -13 -20 -7 0 7
4 12 9 12 5 0 12 8 15 17 6 15 5 16 -11 1 -10 -8 -25 -13 -33 -11 -13 4 -13 3
0 -6 17 -11 10 -21 -17 -25 -11 -2 -18 -11 -17 -24 1 -18 -2 -20 -17 -12 -14
8 -17 7 -14 -8 2 -13 -3 -18 -18 -18 -16 1 -21 -4 -19 -16 3 -16 -8 -22 -29
-20 -4 1 -15 -8 -25 -20 -12 -14 -13 -18 -4 -13 21 13 41 15 34 4 -3 -5 -9 -7
-14 -4 -5 3 -12 1 -15 -5 -5 -8 -11 -8 -20 0 -12 10 -13 8 -10 -10 3 -17 1
-20 -9 -11 -11 9 -14 8 -12 -6 0 -10 -11 -23 -27 -31 -18 -9 -26 -19 -23 -28
7 -18 1 -18 -19 2 -15 15 -16 15 -10 -8 4 -17 1 -29 -12 -38 -15 -12 -16 -12
-6 0 7 8 13 19 13 24 0 6 -7 0 -16 -12 -9 -13 -13 -30 -9 -40 3 -9 3 -13 -1
-9 -4 4 -17 -1 -28 -10 -21 -18 -21 -18 -4 3 10 11 18 24 18 29 0 4 -10 -5
-22 -21 -13 -16 -21 -35 -20 -43 3 -13 2 -13 -14 0 -10 7 -15 9 -11 2 4 -7 0
-17 -10 -23 -16 -10 -16 -11 -1 -6 10 3 20 0 24 -7 4 -7 4 -9 -1 -5 -4 4 -19
-7 -33 -23 -19 -24 -27 -27 -34 -17 -7 9 -8 6 -5 -10 5 -20 3 -22 -11 -10 -9
7 -14 8 -9 3 4 -4 -1 -18 -10 -29 -10 -12 -11 -15 -3 -8 8 6 19 12 24 12 6 0
0 -7 -12 -16 -12 -8 -27 -12 -32 -9 -6 4 -10 3 -9 -2 4 -24 -2 -35 -18 -29
-15 5 -15 3 2 -9 19 -15 19 -16 -10 -43 l-29 -27 24 28 c13 15 19 27 14 27
-11 0 -39 -42 -36 -54 2 -5 -4 -6 -11 -3 -11 4 -13 0 -9 -15 3 -14 1 -19 -6
-14 -7 4 -10 2 -7 -7 3 -7 -7 -27 -22 -43 -15 -16 -28 -33 -28 -39 -1 -5 -5
-9 -11 -8 -6 1 -10 -15 -10 -35 1 -32 -2 -37 -21 -36 -18 0 -20 -3 -12 -24 8
-20 6 -25 -11 -29 -16 -4 -18 -8 -9 -19 10 -12 9 -13 -5 -8 -12 5 -15 2 -9
-12 4 -12 3 -15 -5 -10 -7 4 -12 1 -12 -8 0 -9 -5 -16 -12 -16 -6 0 -8 -3 -5
-6 4 -4 13 -1 22 6 8 7 15 9 15 6 0 -10 -30 -39 -30 -29 0 4 -4 1 -10 -7 -6
-9 -5 -20 3 -29 9 -12 9 -13 0 -7 -7 4 -13 3 -13 -3 0 -5 -8 -12 -17 -14 -13
-3 -10 -5 7 -6 l25 -2 -25 -10 c-24 -10 -24 -11 -7 -24 12 -8 14 -15 8 -20 -6
-3 -11 -1 -11 4 0 6 -5 11 -10 11 -7 0 -6 -8 1 -22 12 -22 11 -22 -6 -8 -10 8
-16 10 -12 3 8 -13 -1 -63 -12 -61 -18 2 -21 -4 -7 -18 9 -8 16 -21 15 -27 0
-9 -2 -8 -6 1 -7 18 -16 15 -32 -10 -13 -21 -13 -22 2 -9 19 15 24 2 6 -16 -5
-5 -11 -29 -12 -51 -1 -24 -7 -44 -15 -47 -8 -3 -10 0 -6 8 5 9 4 9 -6 0 -12
-11 -11 -15 6 -28 14 -11 15 -14 3 -9 -10 3 -20 0 -25 -7 -4 -7 -3 -10 3 -6 6
4 14 0 17 -9 3 -8 2 -12 -4 -9 -17 10 -34 -6 -19 -17 11 -7 11 -11 2 -15 -7
-2 -13 -9 -13 -14 0 -6 4 -8 9 -4 14 8 4 -36 -10 -49 -9 -8 -9 -6 -1 10 8 16
8 21 -2 21 -7 0 -11 -10 -10 -21 1 -12 3 -21 4 -21 1 0 3 -8 5 -18 2 -9 0 -15
-5 -12 -4 3 -10 -2 -14 -10 -3 -8 0 -17 6 -21 7 -4 8 -3 4 4 -4 7 -2 12 4 12
7 0 10 -6 7 -12 -2 -7 -11 -12 -20 -12 -9 1 -13 -4 -10 -12 3 -8 8 -12 12 -10
4 3 7 -6 7 -19 0 -13 -4 -21 -8 -19 -5 3 -5 11 -2 17 4 7 3 8 -1 4 -14 -12
-15 -37 -2 -37 7 0 5 -5 -3 -10 -10 -6 -11 -10 -2 -10 6 0 12 -5 12 -11 0 -5
-6 -7 -13 -3 -8 5 -8 2 2 -9 16 -20 2 -23 -19 -4 -12 10 -12 9 -2 -4 8 -11 8
-19 1 -26 -8 -8 -7 -13 2 -18 8 -5 10 -4 5 3 -5 8 -1 10 10 5 11 -4 13 -8 6
-11 -16 -5 -15 -29 0 -36 7 -4 4 -5 -8 -2 -13 2 -21 -2 -21 -11 0 -8 7 -12 16
-8 14 4 13 3 -1 -8 -15 -12 -15 -14 0 -25 9 -7 12 -10 5 -7 -16 7 -22 -16 -10
-39 8 -16 6 -18 -9 -12 -18 6 -18 5 -2 -7 13 -10 14 -17 6 -25 -8 -8 -6 -15 6
-27 20 -20 21 -32 2 -16 -12 10 -13 8 -9 -9 4 -16 2 -19 -13 -15 -11 3 -5 -1
11 -9 24 -12 26 -15 10 -16 -11 0 -16 -3 -10 -8 13 -8 13 -22 1 -41 -7 -10 -6
-12 4 -6 10 6 12 4 7 -7 -3 -9 0 -21 6 -27 9 -9 8 -11 -5 -6 -11 4 -18 2 -18
-4 0 -6 5 -11 10 -11 6 0 10 -5 10 -11 0 -5 -4 -8 -8 -5 -4 2 -8 -8 -7 -24 0
-15 3 -26 7 -23 5 2 8 -7 8 -21 0 -14 -5 -28 -10 -31 -6 -4 -8 -11 -4 -16 3
-5 9 -7 14 -4 5 3 12 0 16 -6 4 -7 3 -9 -4 -5 -6 3 -13 2 -17 -4 -3 -5 2 -10
12 -10 17 -1 16 -2 -2 -17 -15 -12 -16 -14 -3 -10 9 3 19 0 22 -8 3 -9 0 -12
-8 -9 -7 3 -13 -2 -13 -11 0 -9 6 -14 13 -11 8 3 11 -2 8 -17 -2 -11 2 -25 9
-29 8 -5 3 -8 -13 -9 l-25 0 23 -11 c20 -10 33 -32 14 -25 -4 1 -7 -2 -7 -8 0
-5 3 -9 7 -8 5 2 6 -7 4 -20 -2 -12 3 -32 11 -45 9 -14 13 -37 10 -58 -4 -25
-1 -37 9 -41 8 -3 14 -16 14 -30 0 -17 4 -22 13 -17 7 5 6 0 -3 -11 -13 -17
-13 -18 0 -13 11 4 16 -2 16 -23 1 -16 -3 -26 -8 -23 -17 11 24 -61 43 -74 16
-11 24 -56 9 -47 -4 2 -7 -2 -7 -10 0 -8 5 -11 10 -8 6 4 8 0 4 -10 -4 -12 -1
-17 10 -17 9 0 13 -3 10 -7 -4 -3 1 -12 11 -20 9 -8 11 -12 5 -8 -21 10 -15
-14 6 -27 18 -11 18 -13 3 -25 -16 -11 -16 -12 0 -13 10 0 17 -3 17 -8 -1 -4
-1 -14 0 -22 1 -13 2 -13 11 0 5 8 10 10 10 5 0 -6 -5 -16 -12 -23 -9 -9 -8
-12 6 -12 15 0 16 -3 6 -15 -10 -12 -8 -14 9 -10 12 2 21 0 21 -6 0 -5 -8 -9
-17 -9 -16 -1 -15 -2 2 -12 29 -16 29 -16 17 -31 -9 -10 -8 -14 3 -14 8 0 12
4 9 8 -2 4 0 10 5 13 11 7 9 -13 -3 -33 -6 -10 -5 -12 2 -7 7 4 12 1 12 -8 0
-9 5 -16 10 -16 6 0 10 -7 10 -15 0 -8 6 -15 13 -15 9 0 8 -3 -2 -9 -11 -7 -9
-10 8 -16 18 -5 20 -9 10 -21 -6 -8 -9 -17 -5 -21 3 -3 6 -1 6 5 0 7 8 12 18
12 13 0 14 -2 4 -9 -11 -7 -11 -9 2 -14 10 -4 13 -12 9 -23 -5 -13 -3 -16 10
-11 9 3 19 1 23 -5 4 -6 3 -8 -4 -4 -6 4 -10 -1 -9 -13 1 -15 4 -17 14 -9 11
8 12 7 7 -7 -5 -13 -4 -16 4 -11 16 10 15 -6 0 -23 -10 -11 -10 -13 0 -7 7 5
12 1 13 -11 0 -16 1 -16 10 2 8 17 9 17 6 -7 -3 -23 -1 -26 22 -21 24 4 25 3
7 -10 -15 -11 -16 -16 -6 -22 9 -6 11 -4 5 5 -5 9 -4 11 3 6 7 -4 12 -17 12
-29 0 -17 2 -19 9 -7 6 8 7 18 4 24 -3 5 -1 6 4 3 6 -4 8 -18 5 -32 -2 -14 -1
-25 4 -24 5 1 15 1 23 0 11 -1 11 -4 0 -18 -13 -15 -12 -15 11 -3 23 12 24 12
11 -3 -11 -15 -11 -17 1 -17 15 0 48 -30 48 -43 0 -3 -7 -4 -15 -1 -8 4 -15 1
-15 -5 0 -6 3 -10 8 -10 21 4 32 -2 26 -13 -5 -9 -2 -8 9 1 10 8 20 11 24 7 3
-3 1 -6 -5 -6 -7 0 -12 -5 -12 -11 0 -5 5 -7 12 -3 7 5 9 2 5 -9 -4 -11 -1
-15 13 -12 11 2 23 -1 26 -7 4 -7 2 -8 -4 -4 -7 4 -12 1 -12 -8 0 -9 5 -16 11
-16 5 0 8 -4 5 -9 -4 -5 5 -8 19 -6 20 2 23 -1 15 -11 -13 -14 5 -14 30 1 10
6 9 2 -3 -12 -17 -19 -17 -21 0 -34 11 -9 14 -10 9 -1 -4 7 -2 12 5 12 7 0 9
-8 6 -21 -4 -16 -3 -18 9 -8 11 9 14 9 14 0 0 -7 5 -9 13 -5 7 5 7 2 -2 -10
-12 -15 -12 -17 0 -14 8 2 13 -3 11 -11 -3 -12 0 -12 12 -2 12 10 14 8 10 -11
-2 -13 -2 -18 2 -11 4 10 8 10 19 0 7 -7 11 -15 8 -19 -2 -4 3 -5 11 -2 11 4
16 0 16 -10 0 -9 5 -16 11 -16 5 0 7 6 3 13 -5 8 -2 8 9 -2 18 -14 23 -26 8
-16 -5 3 -13 0 -17 -6 -4 -7 -3 -10 2 -7 16 10 56 -11 49 -24 -4 -7 0 -5 8 5
15 18 15 18 22 -2 5 -18 22 -26 46 -23 4 1 5 -8 2 -18 -3 -12 0 -20 7 -20 17
0 40 -26 32 -36 -4 -5 2 -2 12 6 17 13 18 13 11 1 -6 -11 -4 -13 8 -8 9 3 19
1 23 -5 4 -7 3 -8 -4 -4 -7 4 -12 2 -12 -3 0 -6 9 -12 20 -12 33 -2 38 -4 47
-13 4 -5 3 -6 -4 -2 -6 3 -14 2 -17 -3 -4 -5 6 -8 21 -6 17 2 36 -4 48 -15 11
-10 25 -20 30 -22 6 -2 9 -9 9 -16 -1 -7 1 -11 4 -8 3 3 12 0 20 -7 13 -9 14
-9 8 0 -4 7 -2 13 3 13 6 0 11 -6 11 -14 0 -8 5 -18 12 -22 8 -5 9 -2 4 11 -5
15 -4 16 9 5 8 -7 12 -16 9 -21 -3 -5 2 -9 10 -9 8 0 21 -7 30 -15 9 -9 17
-11 21 -5 3 5 2 10 -2 10 -5 0 -18 7 -29 15 -16 14 -14 14 14 0 19 -9 32 -22
29 -29 -3 -7 1 -13 9 -13 7 0 11 4 8 8 -2 4 1 11 7 15 8 4 9 3 5 -4 -4 -7 -2
-12 4 -12 6 0 8 -5 4 -12 -5 -8 0 -9 15 -5 19 5 20 3 10 -9 -10 -12 -10 -15 2
-12 8 2 17 10 21 18 5 12 7 12 7 -2 1 -16 12 -23 34 -19 4 0 7 -4 7 -10 0 -5
5 -7 10 -4 6 3 10 0 10 -7 0 -8 11 -15 25 -16 14 -1 25 3 25 8 0 5 -6 7 -14 4
-8 -3 -16 -1 -20 4 -3 5 3 8 13 7 21 -1 55 -31 43 -38 -4 -2 -1 -2 7 0 8 2 22
-4 32 -13 17 -15 19 -15 25 0 9 23 24 20 19 -5 -4 -21 -4 -21 16 -3 17 16 22
16 29 4 6 -8 10 -19 10 -24 0 -5 3 -6 7 -3 3 4 13 1 21 -6 13 -10 14 -9 8 2
-6 9 -5 12 5 9 8 -3 13 -11 12 -17 -2 -6 2 -11 7 -11 6 0 10 7 10 15 0 13 3
13 20 3 14 -9 16 -14 7 -20 -9 -6 -9 -8 0 -8 7 0 17 8 22 18 10 16 10 16 11 0
0 -10 5 -18 11 -18 5 0 7 5 3 12 -4 6 -3 8 4 4 5 -3 13 0 16 6 3 7 4 4 1 -7
-4 -15 0 -21 14 -21 11 0 18 3 16 6 -2 3 7 5 20 5 17 0 22 -5 19 -20 -3 -17
-1 -18 9 -5 13 17 41 20 54 6 5 -5 2 -6 -6 -1 -10 6 -12 4 -7 -4 6 -9 13 -8
28 6 21 18 21 18 9 -4 -8 -15 -8 -23 -1 -23 5 0 10 4 10 10 0 5 7 6 17 3 11
-4 14 -3 9 5 -4 7 -2 12 3 12 6 0 11 -7 11 -15 0 -13 4 -14 21 -4 17 9 20 8
14 -1 -6 -10 -1 -12 19 -8 23 5 26 3 21 -16 -5 -19 -5 -19 5 -4 12 20 35 25
24 6 -6 -10 -5 -10 8 -1 8 7 18 10 21 6 4 -3 7 0 7 7 0 9 6 8 20 -5 11 -10 20
-13 20 -7 0 7 7 9 17 5 11 -4 14 -3 9 5 -5 8 -2 10 9 6 13 -5 13 -9 3 -23 -11
-14 -11 -14 2 -5 8 5 30 9 48 9 23 -1 31 3 28 12 -3 7 -3 13 0 13 2 0 9 -10
14 -22 7 -18 9 -19 9 -5 1 9 6 17 12 17 5 0 7 -6 3 -12 -4 -7 2 -5 13 5 16 14
20 14 20 2 0 -8 -5 -11 -10 -8 -6 4 -7 1 -2 -7 6 -10 13 -7 27 11 11 13 16 18
12 10 -5 -11 -3 -13 9 -8 12 4 17 1 18 -11 0 -14 2 -14 8 3 8 19 8 19 19 0 6
-11 12 -14 12 -7 0 6 7 12 16 12 9 0 13 -5 9 -12 -4 -7 0 -5 8 5 15 18 16 18
27 0 9 -14 10 -14 6 -1 -7 24 5 30 21 10 12 -16 13 -16 7 1 -5 13 -2 16 10 11
11 -4 16 -1 16 12 0 16 2 16 9 4 6 -8 8 -17 5 -21 -2 -4 4 -6 13 -4 10 2 21 4
26 4 4 1 7 9 7 18 0 15 2 14 15 -3 11 -14 14 -15 9 -2 -7 20 15 19 42 -2 18
-14 18 -14 4 4 -14 18 -13 18 9 11 14 -4 21 -3 18 2 -4 5 -1 10 6 10 63 5 123
16 136 26 12 10 13 9 7 -2 -6 -9 -5 -12 5 -9 8 3 13 12 11 19 -2 8 0 11 3 7 4
-4 15 -3 25 2 10 5 20 6 24 3 13 -13 37 -11 43 3 5 13 9 12 26 -3 11 -10 17
-12 13 -5 -4 6 -2 12 4 12 6 0 9 4 6 9 -3 5 7 8 23 7 17 -1 28 1 25 5 -2 4 0
10 6 14 5 3 10 2 10 -3 0 -14 29 -10 34 4 3 8 0 11 -8 8 -8 -3 -16 -2 -19 3
-3 4 6 9 19 9 13 1 24 -2 24 -7 0 -5 5 -9 11 -9 6 0 9 6 6 13 -3 8 5 12 27 11
19 -1 42 6 57 18 13 11 18 16 10 12 -9 -5 -12 -3 -7 4 5 9 13 9 28 1 16 -9 19
-8 13 2 -6 9 -3 10 10 5 14 -5 16 -4 6 7 -9 12 -6 13 16 9 22 -4 25 -2 20 12
-4 9 -3 15 2 11 5 -3 11 -2 14 2 2 5 3 3 1 -3 -1 -6 4 -11 11 -11 7 0 12 8 10
18 -3 13 2 15 17 11 16 -4 19 -2 13 9 -7 12 -6 12 7 1 13 -10 18 -9 29 5 13
16 12 17 -3 4 -10 -7 -18 -9 -18 -3 0 16 26 22 40 9 9 -8 11 -9 7 -1 -4 7 1
18 10 25 14 12 15 11 8 -11 -7 -24 -7 -24 8 -5 8 11 13 24 9 30 -3 5 3 3 13
-5 10 -8 16 -10 12 -4 -4 7 0 15 9 18 8 3 12 11 8 17 -4 8 -3 9 4 5 6 -4 9
-14 6 -24 -5 -15 -5 -15 6 1 6 9 8 23 4 30 -5 7 -1 6 10 -2 16 -13 17 -13 14
4 -2 13 4 19 19 20 12 1 19 -3 16 -8 -3 -6 -1 -7 5 -3 7 4 12 13 12 20 0 8 8
20 17 27 11 10 14 10 9 2 -4 -7 -2 -13 3 -13 6 0 11 5 11 11 0 5 5 7 10 4 6
-3 10 3 10 14 0 12 5 21 11 21 5 0 7 -5 3 -12 -5 -7 -3 -8 5 -4 7 5 10 14 7
21 -3 8 2 11 15 8 11 -3 19 0 19 6 0 7 -6 9 -12 5 -8 -4 -10 -3 -5 2 5 5 13
10 18 10 5 1 14 2 20 3 5 0 8 5 4 10 -3 5 -1 12 4 15 5 4 13 1 17 -5 5 -8 3
-9 -6 -4 -9 5 -11 4 -6 -4 4 -6 12 -9 17 -5 5 3 7 10 4 15 -4 5 0 9 7 9 8 0
23 7 34 16 10 8 13 13 7 9 -7 -3 -13 -1 -13 6 0 7 8 9 21 6 15 -4 18 -2 10 7
-14 17 -2 29 15 15 8 -7 14 -6 20 2 4 8 3 9 -4 5 -7 -4 -12 -3 -12 3 0 6 11
13 25 17 14 3 25 10 25 16 0 5 -5 6 -12 2 -6 -4 -8 -3 -5 4 4 5 17 8 30 5 18
-4 19 -3 7 6 -14 10 -7 16 13 12 5 -1 6 9 3 21 -3 13 -3 17 0 11 3 -7 13 -13
22 -13 10 0 13 3 7 8 -14 10 -17 32 -5 32 6 0 10 -5 10 -11 0 -5 5 -7 11 -4 6
4 8 13 5 20 -3 9 2 12 15 10 17 -4 19 -2 8 11 -10 12 -9 13 5 8 12 -5 19 0 23
14 3 13 10 19 19 15 9 -3 12 0 9 9 -8 19 42 71 60 64 8 -3 14 0 12 7 -1 7 3
11 8 10 6 -1 11 7 11 17 0 10 -5 16 -10 13 -5 -4 -6 -1 -2 6 5 7 15 10 23 6
13 -5 14 -3 3 10 -7 9 -9 15 -4 14 19 -3 34 1 34 12 0 5 -5 7 -12 3 -7 -4 -8
-3 -4 5 4 6 12 9 17 5 6 -3 13 4 16 16 4 17 8 19 15 8 6 -9 8 -6 6 12 -2 18 2
25 13 24 9 -1 16 5 16 12 0 7 -5 10 -10 7 -6 -4 -7 -1 -3 6 5 7 14 10 22 7 7
-3 16 0 20 6 4 6 3 8 -4 4 -6 -3 -13 -2 -17 4 -3 5 1 10 9 10 9 0 16 7 16 15
0 8 5 15 11 15 7 0 9 10 5 24 -3 14 -2 28 4 31 6 3 7 -1 4 -9 -3 -9 -2 -16 4
-16 13 0 36 28 38 47 1 8 11 21 21 29 17 13 17 14 -2 8 -17 -5 -16 -3 5 14 14
12 21 24 18 28 -4 4 0 13 10 21 10 9 11 12 2 7 -9 -4 -7 2 5 13 11 11 24 18
29 15 5 -3 6 0 2 7 -5 7 -13 9 -20 4 -7 -4 -4 -1 6 8 9 9 14 19 11 23 -4 3 -1
6 6 6 8 0 11 8 8 20 -3 11 -1 18 4 14 5 -3 9 0 9 6 0 6 4 8 10 5 6 -4 7 1 3
11 -5 13 -3 15 8 9 11 -7 11 -5 -1 10 -14 17 -13 18 4 11 20 -7 20 -6 1 14
-18 20 -18 21 0 14 14 -6 16 -4 10 6 -6 10 -4 12 7 7 14 -5 15 -1 8 23 -8 29
-5 40 14 40 6 0 4 -5 -4 -11 -12 -8 -12 -10 -1 -7 8 2 15 12 17 22 1 10 11 27
21 39 10 11 13 17 7 14 -7 -4 -14 2 -17 13 -3 11 -1 18 4 14 21 -13 30 9 13
34 -14 22 -15 25 -2 14 11 -9 18 -10 23 -2 3 5 0 10 -7 10 -9 0 -9 3 2 10 11
7 11 10 2 10 -7 0 -10 5 -7 10 5 8 12 7 23 -2 13 -10 13 -8 -1 9 -14 16 -15
23 -6 29 8 4 10 3 5 -4 -11 -18 0 -14 15 5 8 9 9 14 3 10 -7 -4 -14 2 -17 14
-5 17 -3 18 9 8 13 -10 13 -8 4 16 -9 23 -8 26 5 21 9 -3 14 -2 12 2 -3 4 0
18 6 32 14 35 16 50 7 50 -4 0 -11 7 -14 16 -5 14 -4 15 9 4 13 -11 14 -10 9
5 -6 14 -4 16 6 10 8 -5 11 -4 6 3 -3 6 1 18 10 26 8 9 11 16 5 16 -6 0 -16
10 -22 23 -11 19 -10 20 3 9 13 -10 17 -10 21 2 4 9 1 18 -5 22 -7 5 -8 2 -3
-6 6 -9 4 -11 -4 -5 -9 5 -6 14 11 33 13 14 18 22 11 18 -6 -3 -14 -2 -18 4
-3 5 -2 10 4 10 6 0 8 7 5 15 -5 11 -2 14 12 9 17 -6 17 -5 -1 9 -17 14 -17
16 -4 17 9 0 20 7 23 16 6 15 4 15 -11 3 -15 -12 -16 -12 -10 5 5 12 3 23 -5
28 -9 5 -5 8 12 8 21 1 22 2 8 10 -10 6 -15 20 -13 35 1 14 -2 28 -7 31 -5 3
-4 12 2 19 7 8 9 19 5 24 -3 6 0 8 8 5 19 -7 32 12 16 22 -8 5 -9 3 -4 -6 5
-9 4 -11 -4 -6 -9 6 -9 11 1 24 11 13 11 14 -1 8 -9 -6 -12 -5 -9 5 3 8 12 13
19 11 9 -1 8 3 -3 11 -18 14 -25 33 -9 23 15 -10 20 33 5 45 -8 7 -12 14 -9
17 2 3 12 -1 21 -9 16 -13 16 -12 3 9 -8 12 -18 22 -24 23 -5 0 -1 4 10 9 17
7 17 9 3 9 -10 1 -18 6 -18 12 0 5 4 8 8 5 4 -2 8 6 8 20 0 13 -4 24 -9 24 -5
0 -3 7 4 16 12 15 11 16 -11 11 -14 -4 -19 -4 -12 -1 6 3 12 15 12 25 0 13 -4
18 -12 13 -7 -4 -2 5 12 21 14 16 19 25 12 21 -16 -9 -13 25 3 36 6 5 5 8 -2
8 -7 0 -13 7 -13 15 0 8 5 15 10 15 6 0 10 5 10 11 0 6 -5 7 -12 2 -27 -16
-42 -11 -18 7 l25 19 -30 -5 c-16 -2 -25 -1 -20 3 13 10 13 23 1 42 -6 10 -5
12 2 7 7 -4 12 -2 12 4 0 6 6 8 13 5 6 -4 2 2 -10 13 -23 20 -30 34 -15 30 4
-2 7 2 7 7 0 6 -3 9 -8 7 -4 -1 -5 12 -2 29 4 23 0 34 -16 48 -17 14 -19 20
-9 26 8 5 11 4 6 -3 -3 -6 -2 -13 3 -16 5 -4 8 2 6 11 -2 10 -4 22 -4 26 -1 5
-5 6 -10 2 -5 -3 -13 0 -17 6 -4 7 -3 10 2 7 5 -3 14 0 21 7 10 10 9 15 -4 19
-9 4 -13 9 -9 13 3 3 -3 13 -15 21 -15 10 -18 17 -10 25 15 15 14 30 -1 21 -8
-5 -7 0 2 11 9 11 10 16 3 11 -7 -4 -13 -3 -13 3 0 5 6 12 13 14 6 3 1 6 -13
7 -23 1 -23 2 -5 10 19 8 19 9 1 9 -16 1 -17 3 -5 18 11 13 11 15 1 9 -9 -5
-13 -3 -11 5 4 30 -2 59 -11 59 -5 0 -7 -7 -4 -15 4 -8 2 -15 -4 -15 -12 0
-11 18 2 39 7 10 6 12 -4 6 -10 -6 -12 -4 -7 9 5 12 -1 24 -15 37 -21 17 -21
18 -3 12 17 -6 18 -4 8 9 -7 8 -10 18 -6 21 3 4 1 7 -5 7 -7 0 -12 -5 -12 -12
0 -6 -3 -8 -6 -5 -4 4 -1 14 7 24 8 9 9 14 4 11 -6 -4 -17 -3 -25 3 -11 6 -12
9 -2 9 7 0 10 5 7 10 -4 6 -11 7 -17 4 -6 -4 -8 -2 -4 4 3 6 1 14 -5 18 -8 4
-7 9 2 15 11 7 10 9 -3 9 -10 0 -18 4 -18 10 0 5 8 7 18 3 9 -3 1 7 -18 22
-19 15 -28 25 -19 22 9 -3 16 0 16 9 0 7 -4 11 -9 8 -8 -5 -12 11 -9 30 1 5
-5 4 -13 -3 -12 -10 -14 -9 -9 8 3 13 1 21 -7 21 -7 0 -10 8 -7 20 3 10 2 19
-2 18 -3 0 -13 0 -21 1 -13 1 -13 2 0 11 12 8 12 10 -5 10 -17 0 -17 2 -5 10
13 8 13 10 -2 10 -9 0 -20 9 -23 20 -3 11 -11 20 -17 20 -6 0 -8 3 -4 7 4 4
15 -3 25 -16 14 -19 20 -21 26 -10 5 8 5 11 1 7 -11 -9 -67 52 -59 65 4 7 0 8
-12 3 -16 -6 -16 -4 -4 11 12 15 12 16 -4 10 -10 -4 -16 -3 -12 2 3 5 1 12 -5
16 -6 4 -7 11 -4 17 5 8 1 9 -11 4 -16 -6 -16 -4 -4 11 12 15 12 16 -4 10 -10
-4 -16 -3 -12 2 3 5 1 12 -5 16 -6 4 -8 11 -5 16 6 8 -8 13 -27 10 -5 0 -8 6
-8 15 0 8 5 12 10 9 6 -3 10 -1 10 4 0 6 -9 11 -21 11 -13 0 -18 -4 -13 -12 5
-7 3 -8 -5 -4 -7 5 -10 11 -7 14 3 3 0 12 -7 21 -11 14 -10 15 8 2 11 -7 8 -3
-6 11 -14 13 -24 29 -21 36 2 7 -2 10 -12 6 -9 -3 -16 -1 -16 5 0 6 5 11 12
11 6 0 8 3 5 6 -4 4 -14 1 -24 -7 -11 -9 -14 -10 -9 -1 4 6 2 12 -3 12 -6 0
-11 5 -11 11 0 5 5 7 12 3 7 -4 8 -3 4 5 -4 6 -12 9 -17 6 -5 -4 -9 4 -10 17
0 13 -3 17 -6 11 -6 -16 -33 -17 -33 -2 0 5 5 7 10 4 6 -3 10 1 10 10 0 9 -4
14 -9 11 -5 -3 -16 5 -25 19 -9 14 -23 25 -31 25 -8 0 -15 4 -15 9 0 5 -8 12
-18 15 -9 3 -23 16 -31 28 l-14 23 25 -22 c13 -13 28 -23 32 -23 4 0 -6 11
-22 25 -17 14 -33 25 -38 25 -4 0 -22 16 -40 35 -17 19 -27 35 -21 35 6 0 7 3
4 6 -4 4 -13 1 -21 -5 -11 -10 -17 -8 -30 10 -8 12 -13 26 -10 31 3 4 -2 8
-11 8 -10 0 -13 -5 -9 -12 4 -6 3 -8 -4 -4 -6 3 -9 19 -6 34 2 15 1 22 -3 17
-5 -6 -21 -11 -38 -12 l-30 -1 25 15 c14 8 18 12 8 9 -21 -6 -31 4 -18 19 7 8
5 12 -5 12 -8 0 -12 -4 -9 -9 10 -16 -24 -8 -37 10 -12 15 -12 16 1 7 10 -6 9
-4 -2 6 -9 9 -14 20 -10 24 4 4 -4 2 -17 -5 -15 -8 -21 -8 -17 -1 4 6 0 11 -9
11 -9 0 -14 4 -11 9 3 5 -1 11 -9 14 -10 4 -12 1 -9 -11 4 -14 3 -13 -6 2 -10
14 -9 20 1 28 11 8 11 9 -2 5 -9 -3 -23 0 -30 6 -10 10 -10 8 0 -6 12 -15 12
-17 -3 -11 -9 3 -16 10 -16 16 0 5 -6 6 -12 2 -8 -5 -7 0 2 11 14 17 13 17 -9
10 -20 -6 -23 -4 -18 9 4 9 3 15 -1 15 -21 -3 -32 2 -26 13 4 7 3 8 -5 4 -6
-4 -9 -12 -6 -17 9 -14 0 -11 -23 10 -12 10 -18 22 -14 27 4 4 0 3 -8 -3 -11
-9 -19 -8 -32 1 -10 7 -16 15 -14 17 2 2 -3 11 -12 19 -14 13 -15 12 -9 -3 3
-9 1 -19 -5 -23 -7 -4 -8 -3 -4 4 6 11 -5 16 -26 13 -4 0 -5 6 -1 15 5 14 3
15 -18 4 -21 -12 -22 -11 -12 2 15 17 7 29 -13 21 -16 -6 -46 21 -36 32 4 5 1
5 -6 1 -10 -6 -10 -11 -1 -22 15 -18 2 -18 -16 0 -8 7 -11 16 -8 20 4 3 1 6
-5 6 -7 0 -12 -4 -12 -9 0 -5 -14 4 -31 20 -25 23 -35 27 -45 18 -9 -7 -14 -8
-14 -1 0 5 -7 13 -16 16 -13 5 -14 4 -6 -7 9 -10 8 -14 -3 -14 -8 0 -15 9 -15
21 0 20 0 20 -15 0 -13 -18 -14 -18 -8 5 5 20 3 23 -11 18 -10 -4 -20 -7 -22
-7 -3 0 -2 -6 2 -12 5 -9 2 -9 -9 1 -20 16 -23 25 -4 15 7 -4 8 -3 4 2 -5 5
-23 9 -40 10 -17 1 -33 7 -35 13 -3 9 -8 9 -17 1 -10 -8 -15 -8 -21 1 -5 8 -3
10 7 4 8 -5 11 -4 6 1 -5 5 -12 9 -15 9 -4 1 -17 6 -29 13 -16 9 -24 9 -29 0
-4 -6 -3 -8 3 -5 6 4 18 0 28 -7 14 -10 15 -15 5 -21 -9 -5 -11 -4 -6 3 7 12
-1 15 -37 15 -13 0 -16 5 -12 21 2 11 2 15 -1 9 -3 -7 -12 -13 -20 -13 -9 0
-12 5 -8 13 6 10 4 10 -7 0 -18 -18 -29 -16 -30 5 0 14 -2 14 -9 -3 -8 -19 -9
-19 -9 -1 -1 20 -1 20 -17 0 -8 -10 -13 -14 -10 -8 3 7 -1 15 -10 18 -23 9
-24 8 -18 -11 5 -17 5 -17 -6 -1 -6 9 -17 15 -25 12 -14 -6 -20 6 -16 29 1 5
-4 5 -11 0 -7 -4 -16 -8 -20 -8 -3 0 -10 -4 -15 -9 -5 -5 -2 -6 6 -1 9 5 12 4
7 -3 -12 -19 -26 -14 -27 11 0 12 -3 16 -6 10 -2 -7 -11 -13 -18 -13 -7 0 -15
-5 -17 -12 -3 -7 -7 -5 -11 6 -4 9 -3 15 2 11 5 -3 12 -1 15 4 4 5 -2 8 -11 6
-10 -2 -18 -4 -18 -5 0 -1 -8 -3 -17 -5 -10 -2 -18 0 -18 4 0 5 -12 7 -27 5
-16 -1 -28 -3 -28 -4 0 -1 -10 -3 -22 -6 -13 -2 -23 0 -23 5 0 6 10 8 21 6 12
-3 18 -1 15 3 -4 4 -11 7 -14 7 -4 0 -13 4 -20 8 -7 5 -12 5 -11 0 3 -20 -2
-27 -11 -13 -7 11 -10 11 -10 2 0 -7 -5 -10 -10 -7 -6 4 -8 11 -5 16 4 5 1 9
-4 9 -6 0 -11 -10 -11 -22 0 -17 -3 -19 -9 -9 -7 11 -13 11 -32 0 -23 -12 -23
-11 -9 6 10 12 10 16 2 11 -7 -4 -20 -2 -30 6 -15 12 -16 11 -4 -4z m-70 -33
c-3 -3 -9 2 -12 12 -6 14 -5 15 5 6 7 -7 10 -15 7 -18z m987 -134 c3 -5 2 -12
-3 -15 -5 -3 -9 1 -9 9 0 17 3 19 12 6z m-1781 -20 c-3 -3 -9 -6 -12 -6 -4 -1
-17 -6 -29 -13 -13 -7 -23 -9 -23 -5 0 4 -5 1 -11 -7 -8 -12 -10 -12 -7 -1 2
8 12 15 22 17 10 1 23 7 28 12 5 5 15 9 23 9 8 0 12 -3 9 -6z m-364 -171 c0
-5 -5 -10 -11 -10 -5 0 -7 5 -4 10 3 6 8 10 11 10 2 0 4 -4 4 -10z m-80 -55
c0 -2 -10 -9 -22 -15 -22 -11 -22 -10 -4 4 21 17 26 19 26 11z m-50 -29 c0 -2
-8 -10 -17 -17 -16 -13 -17 -12 -4 4 13 16 21 21 21 13z m3025 -186 c3 -6 -1
-7 -9 -4 -18 7 -21 14 -7 14 6 0 13 -4 16 -10z m150 -140 c3 -5 1 -10 -4 -10
-6 0 -11 5 -11 10 0 6 2 10 4 10 3 0 8 -4 11 -10z m-3624 -87 c13 -16 12 -17
-3 -4 -10 7 -18 15 -18 17 0 8 8 3 21 -13z m-299 -400 c-6 -2 -9 -10 -6 -15 4
-7 2 -8 -5 -4 -13 9 -5 26 12 25 9 0 8 -2 -1 -6z m4445 -365 c-3 -8 -6 -5 -6
6 -1 11 2 17 5 13 3 -3 4 -12 1 -19z m98 -266 c-3 -3 -11 0 -18 7 -9 10 -8 11
6 5 10 -3 15 -9 12 -12z m62 -347 c0 -8 -4 -12 -9 -9 -5 3 -6 10 -3 15 9 13
12 11 12 -6z m-4926 -442 c13 -16 12 -17 -3 -4 -10 7 -18 15 -18 17 0 8 8 3
21 -13z m9 -67 c0 -2 -7 -7 -16 -10 -8 -3 -12 -2 -9 4 6 10 25 14 25 6z m4854
-352 c-20 -30 -29 -32 -12 -1 7 12 11 26 10 30 -1 5 2 6 8 2 6 -4 4 -15 -6
-31z m-4747 -161 c-4 -3 -1 -13 6 -22 11 -14 10 -14 -5 -2 -16 12 -16 31 -1
31 4 0 3 -3 0 -7z m4558 -323 c3 -5 1 -10 -4 -10 -6 0 -11 5 -11 10 0 6 2 10
4 10 3 0 8 -4 11 -10z m-100 -209 c3 -5 2 -12 -3 -15 -5 -3 -9 1 -9 9 0 17 3
19 12 6z m-220 -301 c-3 -5 -12 -10 -18 -10 -7 0 -6 4 3 10 19 12 23 12 15 0z
m-107 -115 c-3 -3 -9 2 -12 12 -6 14 -5 15 5 6 7 -7 10 -15 7 -18z m-238 -215
c0 -5 -5 -10 -11 -10 -5 0 -7 5 -4 10 3 6 8 10 11 10 2 0 4 -4 4 -10z m-622
-366 c-1 -5 -9 -9 -16 -10 -10 -2 -11 1 -1 12 12 14 24 13 17 -2z m-1690 -69
c-3 -3 -9 2 -12 12 -6 14 -5 15 5 6 7 -7 10 -15 7 -18z m1076 -96 c-3 -5 -10
-7 -15 -3 -5 3 -7 10 -3 15 3 5 10 7 15 3 5 -3 7 -10 3 -15z m-350 -7 c2 -4
-5 -9 -17 -9 -17 -2 -19 0 -7 7 18 12 18 12 24 2z"/>
<path d="M1850 5007 c0 -2 6 -10 14 -16 11 -9 16 -9 22 1 4 7 4 10 -1 6 -4 -4
-14 -3 -22 3 -7 6 -13 9 -13 6z"/>
<path d="M1626 4893 c-6 -14 -5 -15 5 -6 7 7 10 15 7 18 -3 3 -9 -2 -12 -12z"/>
<path d="M3845 4861 c-3 -5 -2 -12 3 -15 5 -3 9 1 9 9 0 17 -3 19 -12 6z"/>
<path d="M4280 4561 c0 -6 4 -13 10 -16 6 -3 7 1 4 9 -7 18 -14 21 -14 7z"/>
<path d="M1075 4540 c3 -5 8 -10 11 -10 2 0 4 5 4 10 0 6 -5 10 -11 10 -5 0
-7 -4 -4 -10z"/>
<path d="M4365 4501 c-3 -5 -2 -12 3 -15 5 -3 9 1 9 9 0 17 -3 19 -12 6z"/>
<path d="M780 4229 c0 -5 -5 -7 -12 -3 -7 4 -8 3 -4 -5 6 -9 11 -9 22 0 17 14
18 19 4 19 -5 0 -10 -5 -10 -11z"/>
<path d="M517 3853 c-10 -9 -9 -23 1 -23 5 0 9 7 9 15 0 17 -1 18 -10 8z"/>
<path d="M4965 3680 c-3 -5 -1 -10 4 -10 6 0 11 5 11 10 0 6 -2 10 -4 10 -3 0
-8 -4 -11 -10z"/>
<path d="M306 3347 c3 -10 9 -15 12 -12 3 3 0 11 -7 18 -10 9 -11 8 -5 -6z"/>
<path d="M5087 3309 c7 -7 15 -10 18 -7 3 3 -2 9 -12 12 -14 6 -15 5 -6 -5z"/>
<path d="M5153 3015 c0 -8 4 -12 9 -9 5 3 6 10 3 15 -9 13 -12 11 -12 -6z"/>
<path d="M5165 2480 c-3 -5 1 -10 9 -10 9 0 16 5 16 10 0 6 -4 10 -9 10 -6 0
-13 -4 -16 -10z"/>
<path d="M5170 2439 c0 -5 5 -7 10 -4 6 3 10 8 10 11 0 2 -4 4 -10 4 -5 0 -10
-5 -10 -11z"/>
<path d="M271 2084 c0 -11 3 -14 6 -6 3 7 2 16 -1 19 -3 4 -6 -2 -5 -13z"/>
<path d="M360 1813 c5 -2 8 -9 4 -14 -3 -5 0 -9 6 -9 15 0 7 23 -8 26 -7 1 -8
0 -2 -3z"/>
<path d="M410 1660 c0 -5 5 -10 11 -10 5 0 7 5 4 10 -3 6 -8 10 -11 10 -2 0
-4 -4 -4 -10z"/>
<path d="M806 1032 c-3 -5 1 -9 9 -9 8 0 12 4 9 9 -3 4 -7 8 -9 8 -2 0 -6 -4
-9 -8z"/>
<path d="M4542 990 c-7 -11 -9 -20 -4 -20 4 0 13 9 20 20 7 11 9 20 4 20 -4 0
-13 -9 -20 -20z"/>
<path d="M1210 664 c0 -17 27 -37 42 -31 8 4 7 6 -4 6 -9 1 -22 9 -27 19 -6 9
-11 12 -11 6z"/>
<path d="M1430 509 c-12 -8 -11 -9 5 -7 14 2 20 -2 18 -16 -1 -13 2 -15 10 -7
17 17 -13 44 -33 30z"/>
<path d="M1990 264 c0 -8 5 -12 10 -9 6 4 8 11 5 16 -9 14 -15 11 -15 -7z"/>
<path d="M3325 252 c-10 -7 -18 -32 -10 -32 2 0 9 9 15 20 12 22 11 24 -5 12z"/>
</g>
</svg>
