<svg xmlns="http://www.w3.org/2000/svg" width="256" height="258" viewBox="0 0 256 258" version="1.1"><path d="M 193 49.893 C 187.777 56.638, 187.664 55.795, 194.822 63.500 C 197.889 66.800, 200.040 68.911, 199.603 68.191 C 199.072 67.316, 200.714 64.884, 204.546 60.866 L 210.284 54.851 204.926 49.425 C 198.356 42.772, 198.519 42.766, 193 49.893 M 28 82.029 C 28 83.653, 34.050 91.498, 35.322 91.524 C 35.970 91.537, 36.402 92.437, 36.281 93.524 C 36.161 94.611, 36.475 96.737, 36.979 98.250 C 37.550 99.961, 37.538 101, 36.948 101 C 36.427 101, 36.037 102.688, 36.082 104.750 L 36.163 108.500 37.714 105 C 38.567 103.075, 39.318 100.307, 39.382 98.848 C 39.447 97.390, 39.785 96.372, 40.134 96.586 C 40.817 97.005, 43.523 91.141, 42.885 90.625 C 39.699 88.055, 28 81.298, 28 82.029 M 221 139.703 C 221 144.716, 221.119 144.940, 224.250 145.835 C 226.037 146.346, 229.921 147.734, 232.880 148.919 C 239.362 151.515, 238.678 152.176, 239.519 142.500 L 240.215 134.500 230.607 134.500 L 221 134.500 221 139.703 M 47.896 191.496 C 45.598 193.948, 42.880 196.221, 41.858 196.545 C 38.863 197.496, 39.578 198.796, 47.673 207.115 C 56.868 216.563, 55.689 216.436, 61.809 208.648 L 66.801 202.296 59.439 194.666 L 52.076 187.036 47.896 191.496" stroke="none" fill="#20a6be" fill-rule="evenodd"/><path d="M 49.312 50.808 L 43.217 57.616 49.609 64.198 C 53.124 67.819, 56 70.474, 56 70.100 C 56 69.726, 58.769 66.641, 62.154 63.246 L 68.308 57.073 62.570 50.536 C 55.598 42.596, 56.685 42.574, 49.312 50.808 M 90.450 60.356 C 81.138 64.567, 77.279 81.835, 81.567 100.106 C 82.134 102.525, 81.799 102.835, 76.894 104.440 C 40.867 116.224, 41.367 142.150, 77.832 153.069 C 81.768 154.247, 82.108 154.600, 81.554 156.933 C 72.622 194.542, 94.034 209.683, 121.800 185.393 C 127.701 180.232, 126.485 180.035, 135.861 187.672 C 160.498 207.742, 179.025 196.300, 174.017 164.108 C 172.439 153.963, 171.944 154.963, 180.100 151.830 C 213.500 139.001, 212.311 115.099, 177.741 104.410 C 173.434 103.078, 172.100 102.235, 172.448 101.065 C 182.991 65.602, 163.017 47.760, 136.500 68.953 C 126.425 77.006, 128.042 76.840, 120.329 70.608 C 108.448 61.008, 97.394 57.215, 90.450 60.356 M 92.404 66.414 C 85.009 69.662, 83.083 102.575, 90.403 100.583 C 91.557 100.269, 96.467 99.474, 101.316 98.817 C 108.154 97.890, 110.358 97.199, 111.142 95.735 C 111.697 94.697, 114.579 90.987, 117.546 87.490 L 122.940 81.131 117.760 76.474 C 108.508 68.156, 97.963 63.972, 92.404 66.414 M 152.500 66.826 C 147.492 68.542, 141.473 72.313, 135.097 77.729 L 131.694 80.619 138.333 89.015 L 144.972 97.411 155.236 99.141 C 167.415 101.193, 166.784 101.618, 168.159 90.418 C 170.543 70.987, 164.949 62.559, 152.500 66.826 M 25.587 84.828 C 22.871 90.188, 18.472 103.399, 17.417 109.366 L 16.734 113.232 24.417 112.844 C 29.319 112.597, 32.394 111.981, 32.912 111.143 C 33.358 110.420, 33.898 109.897, 34.112 109.979 C 35.363 110.462, 37.998 108.533, 37.985 107.143 C 37.971 105.717, 37.841 105.698, 37 107 C 36.279 108.116, 36.027 107.539, 36.015 104.750 C 36.007 102.688, 36.427 101, 36.948 101 C 37.538 101, 37.550 99.961, 36.979 98.250 C 36.475 96.737, 36.161 94.611, 36.281 93.524 C 36.402 92.437, 35.970 91.537, 35.322 91.524 C 34.020 91.497, 28 83.635, 28 81.961 C 28 81.379, 29.913 82.199, 32.250 83.782 C 37.640 87.432, 39 88.221, 39 87.701 C 39 87.471, 36.532 85.645, 33.516 83.642 L 28.033 80.001 25.587 84.828 M 122.313 91.306 L 118.126 96.500 126.689 96.791 C 137.204 97.148, 137.257 97.097, 132.357 91.316 C 127.197 85.228, 127.213 85.228, 122.313 91.306 M 114.443 103.680 C 112.495 104.067, 104.765 115.905, 100.464 125.090 C 98.517 129.246, 98.485 129.155, 107.276 144.180 C 113.150 154.219, 112.625 153.968, 127.816 153.986 C 142.731 154.004, 143.058 153.750, 152.819 134.563 L 155.840 128.626 152.787 122.577 C 146.524 110.172, 142.204 104.291, 138.863 103.623 C 135.540 102.958, 117.874 103, 114.443 103.680 M 94.319 106.152 L 90.139 107.090 92.092 112.768 C 94.878 120.865, 95.248 120.882, 99.854 113.129 C 105.258 104.032, 105.033 103.748, 94.319 106.152 M 152.411 109.095 C 153.902 111.518, 155.852 114.963, 156.746 116.750 C 158.945 121.149, 159.522 120.895, 161.928 114.462 C 164.957 106.366, 165.051 106.494, 155.266 105.344 L 149.702 104.690 152.411 109.095 M 76 111.188 C 49.780 121.237, 49.504 135.114, 75.320 145.402 C 83.901 148.821, 83.423 149.071, 87.592 138.986 C 91.907 128.550, 91.907 128.453, 87.592 118 C 83.619 108.374, 83.510 108.310, 76 111.188 M 166.780 118.706 L 163.060 128.505 166.780 138.250 C 171.052 149.441, 170.604 149.240, 181.087 144.663 C 203.494 134.879, 204.344 123.035, 183.337 113.329 C 170.639 107.462, 171.106 107.311, 166.780 118.706 M 120.299 116.900 C 111.611 122.359, 112.081 135.888, 121.121 140.563 C 130.835 145.586, 143.218 135.973, 140.579 125.458 C 138.481 117.101, 127.413 112.430, 120.299 116.900 M 15.183 127.500 C 15.011 131.423, 16.839 150.172, 17.453 150.786 C 17.714 151.048, 20.307 150.305, 23.214 149.137 C 26.121 147.969, 29.962 146.728, 31.750 146.381 C 34.878 145.774, 36.857 141, 33.981 141 C 33.390 141, 33.214 139.843, 33.562 138.250 C 33.954 136.454, 33.845 135.947, 33.248 136.789 C 32.077 138.439, 26.519 136.587, 27.565 134.894 C 28.047 134.116, 26.499 133.892, 22.375 134.142 L 16.500 134.500 15.907 129.500 C 15.559 126.562, 15.260 125.737, 15.183 127.500 M 94.512 137.981 C 92.365 141.454, 90.257 149.885, 91.423 150.332 C 93.818 151.251, 104 152.229, 104 151.540 C 104 150.726, 95.924 137, 95.445 137 C 95.265 137, 94.845 137.442, 94.512 137.981 M 156.252 141.250 C 155.071 143.588, 153.091 147.035, 151.852 148.911 L 149.599 152.322 155.215 151.662 C 165.057 150.506, 164.959 150.639, 161.928 142.538 C 159.439 135.884, 159.011 135.787, 156.252 141.250 M 87.112 162.277 C 82.526 188.612, 91.626 198.099, 110.215 186.364 C 119.778 180.327, 123.494 175.485, 120.481 172.984 C 119.645 172.290, 116.894 168.973, 114.368 165.611 L 109.774 159.500 102.137 158.396 C 97.937 157.789, 93.088 156.976, 91.362 156.591 L 88.224 155.890 87.112 162.277 M 158 157.536 C 154.425 158.222, 150.124 158.833, 148.441 158.892 C 145.837 158.984, 144.367 160.293, 138.550 167.693 L 131.718 176.386 135.609 179.713 C 158.396 199.198, 171.692 193.789, 168.165 166.467 C 167.057 157.886, 166.478 155.876, 165.191 156.144 C 164.811 156.222, 161.575 156.849, 158 157.536 M 119.920 162.750 C 121.051 164.262, 123.131 166.850, 124.541 168.500 L 127.106 171.500 131.553 166.527 C 137.410 159.978, 137.426 160, 126.932 160 L 117.864 160 119.920 162.750" stroke="none" fill="#63d8f8" fill-rule="evenodd"/><path d="M 116.500 2.647 C 2.250 15.892, -40.658 169.621, 52.615 231.533 C 55.528 233.466, 58.172 235.470, 58.490 235.984 C 58.809 236.499, 64.116 239.373, 70.284 242.369 C 163.577 287.694, 267.804 213.144, 252.555 111.996 C 242.593 45.907, 179.658 -4.674, 116.500 2.647 M 107.835 6.543 C 22.504 19.836, -23.251 123.672, 24.111 196.548 C 76.706 277.474, 197.281 270.126, 239.837 183.401 C 282.744 95.962, 204.738 -8.552, 107.835 6.543 M 125 26.500 L 125 36 128.500 36 L 132 36 132 26.500 L 132 17 128.500 17 L 125 17 125 26.500 M 103 19.738 C 99.975 20.606, 97.377 21.404, 97.228 21.513 C 97.078 21.622, 98.355 25.376, 100.065 29.856 C 103.371 38.513, 103.352 38.498, 110.250 37.358 L 114 36.738 114 27.369 L 114 18 111.250 18.081 C 109.737 18.125, 106.025 18.871, 103 19.738 M 142 27.273 L 142 36.773 146.592 37.461 C 152.105 38.288, 151.348 38.973, 155.540 29.360 L 158.968 21.500 154.968 20.309 C 152.768 19.654, 148.950 18.815, 146.484 18.445 L 142 17.773 142 27.273 M 166.853 33.366 L 163.207 41.500 170.706 45.314 C 174.831 47.411, 178.314 48.986, 178.446 48.814 C 178.578 48.641, 180.986 45.501, 183.798 41.836 C 189.708 34.133, 190.195 35.143, 177.485 28.747 L 170.500 25.232 166.853 33.366 M 75.308 30.015 C 66.041 35.155, 66.146 34.797, 71.652 42.452 C 76.290 48.899, 77.671 49.886, 79.550 48.094 C 80.073 47.595, 83.016 46.133, 86.090 44.844 L 91.680 42.500 88.196 34.250 C 84.154 24.681, 84.639 24.840, 75.308 30.015 M 114.039 49.100 C 53.279 58.429, 23.867 133.443, 62.572 180.366 C 100.010 225.754, 175.177 219.320, 201.203 168.500 C 232.421 107.538, 182.129 38.645, 114.039 49.100 M 204.152 61.050 C 200.600 64.917, 199.070 67.315, 199.597 68.187 C 200.034 68.909, 202.012 71.562, 203.992 74.083 L 207.594 78.666 212.545 75.321 C 215.269 73.482, 218.318 71.717, 219.321 71.398 C 221.660 70.656, 221.116 69.303, 215.286 61.362 C 209.748 53.820, 210.765 53.848, 204.152 61.050 M 38.546 63.644 C 34.212 69.320, 34.173 68.855, 39.272 72.500 C 49.487 79.803, 48.385 79.600, 51.902 74.819 L 55.020 70.578 49.291 64.789 C 42.410 57.835, 42.938 57.892, 38.546 63.644 M 89.415 60.359 C 80.561 64.393, 77.244 77.037, 80.368 94.847 C 81.515 101.384, 81.483 102.256, 80.079 102.755 C 40.477 116.830, 38.834 139.913, 76.500 153.031 C 79.250 153.988, 81.386 155.279, 81.246 155.898 C 72.351 195.331, 92.285 210.309, 121.476 186.126 L 127.452 181.176 131.015 184.395 C 160.489 211.022, 179.068 199.222, 173.786 157.231 C 173.537 155.254, 174.531 154.543, 181.500 151.717 C 197.958 145.042, 204.500 138.461, 204.500 128.579 C 204.500 118.584, 197.884 111.902, 181.500 105.347 C 174.454 102.528, 173.534 101.869, 173.786 99.823 C 178.810 58.936, 162.428 46.812, 133.930 70.326 L 127.359 75.748 121.501 70.918 C 109.321 60.876, 97.104 56.856, 89.415 60.359 M 90.537 68.372 C 86.146 72.763, 84.934 82.498, 87.346 94 C 88.657 100.248, 87.885 100.005, 101.665 98.507 L 108.831 97.729 115.560 89.167 L 122.290 80.605 118.895 77.694 C 106.497 67.063, 95.471 63.438, 90.537 68.372 M 151.703 67.442 C 147.231 69.037, 142.049 72.399, 136.500 77.305 C 131.968 81.312, 131.702 80.330, 140.118 90.664 L 145.736 97.562 155.518 98.797 C 166.605 100.198, 165.883 100.415, 167.064 95.329 C 171.765 75.074, 164.957 62.715, 151.703 67.442 M 220 85.032 C 216.425 87.211, 213.176 89.108, 212.780 89.247 C 212.384 89.386, 213.194 92.620, 214.580 96.432 C 215.965 100.245, 217.564 105.532, 218.133 108.182 L 219.166 113 228.989 113 C 237.825 113, 238.774 112.824, 238.427 111.250 C 235.286 97.005, 229.584 80.978, 227.677 81.035 C 227.030 81.055, 223.575 82.853, 220 85.032 M 123.154 90.816 C 117.779 97.236, 117.611 97, 127.568 97 L 136.136 97 134.080 94.250 C 132.949 92.737, 130.963 90.230, 129.666 88.677 L 127.308 85.854 123.154 90.816 M 109.223 110.264 C 107.047 113.710, 103.891 119.254, 102.209 122.585 L 99.152 128.642 103.392 136.571 C 113.060 154.649, 111.457 153.787, 133.974 153.024 C 142.498 152.735, 141.623 153.450, 148.841 140.861 C 156.430 127.626, 156.524 128.514, 145.666 110.750 L 141.540 104 127.360 104 L 113.179 104 109.223 110.264 M 96.250 106.195 C 90.236 107.292, 90.313 107.088, 93.106 114.553 L 95.212 120.181 96.901 117.341 C 102.945 107.180, 103.992 105.008, 102.792 105.119 C 102.081 105.184, 99.138 105.668, 96.250 106.195 M 151.132 105.645 C 152.500 108.821, 158.625 118.978, 159.178 118.988 C 159.723 118.998, 164 108.874, 164 107.574 C 164 107.381, 162.313 106.932, 160.250 106.577 C 158.188 106.222, 155.209 105.675, 153.632 105.360 C 152.054 105.046, 150.929 105.174, 151.132 105.645 M 74.732 112.119 C 50.220 121.720, 56.495 148, 83.300 148 C 83.500 148, 85.345 143.560, 87.400 138.133 L 91.137 128.266 88.696 122.383 C 87.353 119.147, 85.712 114.813, 85.050 112.750 C 83.618 108.293, 84.379 108.340, 74.732 112.119 M 170.328 110.788 C 170.008 111.730, 168.311 116.107, 166.557 120.516 C 163.526 128.129, 163.441 128.706, 164.845 132.016 C 165.658 133.932, 167.329 138.200, 168.559 141.500 C 171.236 148.687, 171.601 148.722, 183.613 142.964 C 205.002 132.712, 202.132 119.819, 176.497 110.999 C 171.270 109.201, 170.870 109.187, 170.328 110.788 M 118.549 118.091 C 112.230 123.639, 111.865 132.118, 117.683 138.191 C 126.273 147.157, 141 141.037, 141 128.500 C 141 116.805, 127.266 110.437, 118.549 118.091 M 16 129.500 L 16 134 25 134 L 34 134 34 129.500 L 34 125 25 125 L 16 125 16 129.500 M 221.195 129.750 L 221.500 134.500 228.500 134.695 C 239.441 135.001, 240 134.748, 240 129.481 L 240 125 230.445 125 L 220.890 125 221.195 129.750 M 93.111 142.433 C 90.089 150.509, 89.456 149.714, 100.420 151.609 L 104.340 152.286 102.249 148.893 C 101.098 147.027, 99.047 143.541, 97.689 141.146 L 95.222 136.792 93.111 142.433 M 154.738 144.684 C 150.281 152.533, 150.234 152.428, 157.565 151.073 C 164.764 149.742, 164.434 150.311, 161.883 143.645 C 159.207 136.653, 159.307 136.638, 154.738 144.684 M 28.669 160.362 C 19.447 163.989, 19.524 163.507, 25.984 177.250 C 30.721 187.330, 30.441 187.208, 37.293 182.173 C 40.157 180.068, 43.212 177.930, 44.083 177.423 C 45.458 176.621, 45.066 175.243, 41.083 166.892 L 36.500 157.283 28.669 160.362 M 88.722 157.642 C 87.791 159.150, 86 170.225, 86.006 174.434 C 86.032 193.839, 99.119 196.164, 117.897 180.100 L 122.293 176.339 116.029 168.419 C 112.583 164.064, 109.583 160.304, 109.363 160.064 C 109.142 159.825, 106.383 159.305, 103.231 158.910 C 100.079 158.514, 95.644 157.874, 93.376 157.488 C 91.107 157.101, 89.013 157.171, 88.722 157.642 M 153.500 158.574 C 149.100 159.287, 145.445 159.899, 145.377 159.935 C 144.743 160.272, 133.741 174.511, 133.371 175.474 C 132.692 177.246, 141.324 184.446, 148.410 188.020 C 162.777 195.265, 168.637 190.124, 167.750 171.054 C 167.025 155.495, 167.882 156.244, 153.500 158.574 M 215.191 165.419 C 213.371 169.864, 211.648 174.219, 211.364 175.098 C 211.008 176.195, 212.967 178.363, 217.609 182.011 L 224.372 187.326 225.936 185.021 C 227.805 182.266, 236.228 163.883, 235.800 163.493 C 235.635 163.343, 231.675 161.897, 227 160.280 L 218.500 157.338 215.191 165.419 M 119 160.611 C 119 160.947, 120.869 163.455, 123.154 166.184 L 127.308 171.146 129.666 168.323 C 130.963 166.770, 132.949 164.262, 134.080 162.750 L 136.136 160 127.568 160 C 122.856 160, 119 160.275, 119 160.611 M 195.883 195.910 L 188.890 202.820 191.195 204.972 C 193.205 206.848, 193.248 207.027, 191.529 206.370 C 190.230 205.873, 191.082 207.386, 194.029 210.808 C 199.336 216.970, 198.774 216.861, 202.960 212.541 C 205.782 209.630, 206.110 208.838, 205.034 207.541 C 203.966 206.254, 204.040 206, 205.485 206 C 206.588 206, 207.012 205.473, 206.655 204.543 C 206.220 203.410, 206.585 203.263, 208.298 203.884 C 210.089 204.533, 211.060 204.021, 213.500 201.142 C 215.150 199.196, 215.969 197.925, 215.319 198.318 C 214.670 198.711, 213.856 198.575, 213.510 198.016 C 213.165 197.457, 213.374 197, 213.976 197 C 214.577 197, 213.366 195.537, 211.285 193.750 C 209.203 191.963, 207.350 190.162, 207.167 189.750 C 206.177 187.524, 202.137 189.730, 195.883 195.910 M 72.173 215.177 C 66.002 223.819, 65.903 223.293, 74.673 228.403 C 82.516 232.973, 85 233.845, 85 232.026 C 85 231.491, 86.575 227.816, 88.500 223.860 C 90.426 219.904, 91.888 216.579, 91.750 216.471 C 91.475 216.255, 77.806 209.617, 77 209.308 C 76.725 209.203, 74.553 211.843, 72.173 215.177 M 170 213.693 C 166.425 215.563, 163.500 217.410, 163.500 217.797 C 163.501 219.786, 169.405 234, 170.230 234 C 172.652 234, 187.965 224.748, 187.335 223.665 C 185.603 220.689, 177.445 210.016, 177 210.146 C 176.725 210.226, 173.575 211.822, 170 213.693 M 102.517 221.144 C 102.241 221.890, 100.917 225.753, 99.574 229.729 L 97.133 236.959 100.920 237.978 C 103.002 238.539, 106.797 239.285, 109.353 239.635 L 114 240.272 114 231.261 L 114 222.250 111.117 221.673 C 109.531 221.356, 107.060 220.802, 105.626 220.442 C 103.864 220, 102.856 220.227, 102.517 221.144 M 148.500 220.491 C 147.950 220.675, 146.262 221.098, 144.750 221.432 C 142 222.038, 142 222.038, 142 231.019 C 142 241.229, 141.350 240.694, 151.594 238.910 L 157.852 237.821 154.753 228.910 C 151.865 220.606, 151.129 219.614, 148.500 220.491 M 125 232 L 125 241 128.500 241 L 132 241 132 232 L 132 223 128.500 223 L 125 223 125 232" stroke="none" fill="#202f42" fill-rule="evenodd"/><path d="M 117.500 5.677 C 61.420 10.456, 11.612 59.615, 5.853 115.869 C -7.210 243.450, 152.703 303.779, 229.257 200.152 C 289.163 119.061, 219.034 -2.975, 117.500 5.677 M 110.500 17.656 C 109.400 17.890, 105.766 18.783, 102.426 19.641 L 96.351 21.202 99.629 29.851 C 103.224 39.337, 102.873 39.115, 111.750 37.500 L 115 36.909 115 26.955 C 115 16.592, 115.048 16.691, 110.500 17.656 M 124 26.500 L 124 36 128.500 36 L 133 36 133 26.500 L 133 17 128.500 17 L 124 17 124 26.500 M 142 27.281 L 142 36.838 146.750 37.857 C 152.308 39.050, 151.856 39.431, 155.484 30.500 C 157.048 26.650, 158.734 22.967, 159.232 22.316 C 160.286 20.935, 155.491 19.350, 147.250 18.357 L 142 17.725 142 27.281 M 81.500 26.144 C 80.400 26.739, 76.456 29, 72.735 31.167 L 65.969 35.108 71.181 42.572 C 74.047 46.677, 76.641 49.892, 76.946 49.716 C 77.251 49.540, 80.650 47.908, 84.500 46.089 C 88.350 44.271, 91.623 42.672, 91.772 42.536 C 92.205 42.143, 84.623 24.997, 84.032 25.030 C 83.739 25.047, 82.600 25.548, 81.500 26.144 M 166.639 32.961 C 164.638 37.340, 163.028 41.277, 163.063 41.711 C 163.115 42.379, 178.327 50.215, 178.538 49.684 C 178.579 49.583, 181.022 46.197, 183.968 42.159 C 188.245 36.297, 189.040 34.637, 187.912 33.917 C 185.692 32.499, 171.246 25, 170.736 25 C 170.484 25, 168.641 28.583, 166.639 32.961 M 193.505 48.653 C 186.944 56.708, 186.893 56.206, 195.139 64.799 C 199.203 69.035, 203.682 74.045, 205.091 75.933 L 207.653 79.366 211.077 76.790 C 212.959 75.374, 216.180 73.327, 218.234 72.242 L 221.969 70.269 217.082 63.384 C 214.394 59.598, 209.060 53.421, 205.228 49.657 L 198.262 42.813 193.505 48.653 M 48.954 51.127 C 32.772 68.995, 32.972 68.377, 41.429 74.412 C 49.322 80.044, 48.688 80.090, 53.370 73.554 C 55.499 70.582, 59.732 65.660, 62.777 62.615 L 68.313 57.078 62.572 50.539 C 55.585 42.581, 56.738 42.531, 48.954 51.127 M 109.500 49.423 C 46.520 63.934, 23.048 141.377, 67.864 186.795 C 106.510 225.960, 176.593 216.621, 201.397 169 C 233.976 106.452, 178.015 33.635, 109.500 49.423 M 25.576 84.851 C 22.890 90.151, 18.472 103.400, 17.439 109.250 L 16.777 113 26.889 113 C 35.844 113, 37.002 112.800, 37.021 111.250 C 37.033 110.287, 38.396 105.675, 40.051 101 C 41.706 96.325, 43.159 91.983, 43.280 91.351 C 43.401 90.719, 40.015 87.917, 35.755 85.125 L 28.010 80.047 25.576 84.851 M 220.166 84.467 C 216.133 86.869, 212.633 89.033, 212.389 89.278 C 212.145 89.522, 213.307 93.788, 214.972 98.758 C 216.638 103.729, 218 108.966, 218 110.398 L 218 113 228.611 113 L 239.223 113 238.524 109.274 C 236.908 100.661, 229.535 79.937, 228.127 80.050 C 227.782 80.078, 224.200 82.065, 220.166 84.467 M 15.026 127.750 C 15.070 132.429, 16.951 150.284, 17.453 150.786 C 17.714 151.048, 20.307 150.305, 23.214 149.137 C 26.121 147.969, 30.011 146.719, 31.857 146.360 C 35.075 145.734, 35.190 145.558, 34.618 142.104 C 34.290 140.122, 34.017 135.463, 34.011 131.750 L 34 125 24.500 125 L 15 125 15.026 127.750 M 220.816 134.955 L 220.500 144.910 229.312 148.060 C 240.048 151.897, 239.428 152.525, 239.832 137.420 L 240.163 125 230.648 125 L 221.133 125 220.816 134.955 M 27.737 160.283 C 20.937 162.962, 20.047 163.599, 20.563 165.421 C 21.336 168.151, 30.229 187, 30.744 187 C 31.131 187, 43.678 178.353, 45.328 176.949 C 45.783 176.562, 44.808 173.827, 43.161 170.872 C 41.515 167.918, 39.608 163.588, 38.925 161.250 C 37.478 156.298, 37.786 156.325, 27.737 160.283 M 216.940 160.750 C 216.272 162.813, 214.437 167.075, 212.863 170.221 C 211.288 173.368, 210 176.127, 210 176.351 C 210 176.701, 217.341 182.508, 223.235 186.821 C 224.890 188.031, 225.494 187.200, 230.511 176.821 C 236.219 165.010, 237.025 162, 234.481 162 C 233.646 162, 229.742 160.875, 225.807 159.500 C 221.871 158.125, 218.540 157, 218.403 157 C 218.267 157, 217.608 158.688, 216.940 160.750 M 47.946 190.577 C 46.051 192.544, 43.263 194.891, 41.750 195.793 C 40.237 196.694, 39 197.795, 39 198.239 C 39 199.415, 55.202 216.108, 56.024 215.778 C 57.449 215.207, 67.127 202.885, 66.820 202.034 C 66.340 200.706, 52.923 187, 52.102 187 C 51.712 187, 49.842 188.610, 47.946 190.577 M 195.325 195.429 L 187.149 203.821 192.639 210.161 C 199.190 217.725, 197.566 218.022, 208.250 207.305 C 218.669 196.853, 218.412 198.495, 210.622 192.175 C 202.911 185.918, 205.027 185.468, 195.325 195.429 M 71.123 216.021 C 68.305 219.883, 66 223.224, 66 223.446 C 66 224.038, 84.071 234.281, 84.369 233.858 C 84.899 233.105, 92 217.054, 92 216.609 C 92 216.154, 77.616 209, 76.701 209 C 76.451 209, 73.940 212.160, 71.123 216.021 M 170.306 212.992 C 161.888 217.097, 162.167 216.192, 166.101 226.616 L 169.202 234.832 172.899 233.166 C 174.932 232.250, 179.355 229.991, 182.729 228.147 L 188.862 224.795 183.268 217.147 C 180.192 212.941, 177.635 209.496, 177.587 209.492 C 177.539 209.487, 174.263 211.062, 170.306 212.992 M 100.119 226.751 C 98.810 231.013, 97.531 235.247, 97.276 236.160 C 96.803 237.858, 102.309 239.482, 111 240.208 L 114.500 240.500 114.786 231.341 L 115.073 222.181 110.284 221.154 C 107.650 220.590, 104.822 219.874, 103.998 219.564 C 102.854 219.134, 101.937 220.833, 100.119 226.751 M 150.500 219.583 C 149.950 219.753, 147.588 220.384, 145.250 220.985 L 141 222.077 141 231.539 C 141 238.461, 141.335 240.990, 142.250 240.963 C 144.486 240.897, 157.011 238.322, 157.507 237.826 C 157.921 237.412, 152.485 220.056, 151.761 219.481 C 151.617 219.367, 151.050 219.413, 150.500 219.583 M 124.448 222.885 C 124.202 223.132, 124 227.308, 124 232.167 L 124 241 128.500 241 L 133 241 133 232.105 L 133 223.210 128.948 222.824 C 126.719 222.611, 124.694 222.639, 124.448 222.885" stroke="none" fill="#f7f9f9" fill-rule="evenodd"/></svg>